<svg width="32" height="32" viewBox="0 0 32 32" fill="none" xmlns="http://www.w3.org/2000/svg" class="abui-icon-size-28px company" data-class="max400" data-html="true" data-isicon="true" tabindex="-1"><g id="ic_Company" fill-rule="evenodd" clip-rule="evenodd"><path id="Combined-Shape" d="M6 4h9a2 2 0 012 2v22H4V6a2 2 0 012-2zm3 16h3a1 1 0 011 1v7H8v-7a1 1 0 011-1zm10-6h5a2 2 0 012 2v12h-9V16a2 2 0 012-2z" stroke="#111619" stroke-width="1.5" stroke-linecap="round" stroke-linejoin="round"></path><path id="Combined-Shape_2" d="M9 9a1 1 0 110 2 1 1 0 010-2zm3 0a1 1 0 110 2 1 1 0 010-2zm-3 3a1 1 0 110 2 1 1 0 010-2zm3 0a1 1 0 110 2 1 1 0 010-2zm-3 3a1 1 0 110 2 1 1 0 010-2zm3 0a1 1 0 110 2 1 1 0 010-2z" fill="#111619"></path><path id="Combined-Shape_3" d="M20 19a1 1 0 110 2 1 1 0 010-2zm3 0a1 1 0 110 2 1 1 0 010-2zm-3 3a1 1 0 110 2 1 1 0 010-2zm3 0a1 1 0 110 2 1 1 0 010-2z" fill="#111619"></path></g></svg>

